<?xml version="1.0" standalone="no"?>
<!DOCTYPE svg PUBLIC "-//W3C//DTD SVG 20010904//EN"
 "http://www.w3.org/TR/2001/REC-SVG-20010904/DTD/svg10.dtd">
<svg version="1.0" xmlns="http://www.w3.org/2000/svg"
 width="512.000000pt" height="512.000000pt" viewBox="0 0 512.000000 512.000000"
 preserveAspectRatio="xMidYMid meet">
<metadata>
Created by potrace 1.16, written by Peter Selinger 2001-2019
</metadata>
<g transform="translate(0.000000,512.000000) scale(0.100000,-0.100000)"
fill="white" stroke="none">
<path d="M776 5095 c-88 -36 -132 -79 -179 -175 l-32 -65 0 -2295 0 -2295 31
-65 c38 -80 91 -134 164 -169 l55 -26 1745 0 1745 0 55 26 c73 35 126 89 164
169 l31 65 0 2295 0 2295 -31 65 c-38 80 -91 134 -164 169 l-55 26 -1735 2
-1735 3 -59 -25z m3139 -569 c60 -28 97 -66 124 -126 19 -41 21 -65 21 -285 0
-220 -2 -244 -21 -285 -27 -60 -64 -98 -124 -126 l-50 -24 -1305 0 c-1291 0
-1305 1 -1350 21 -60 27 -98 64 -126 124 -23 48 -24 58 -24 290 0 220 2 244
21 285 27 60 64 98 124 126 l50 24 1305 0 1305 0 50 -24z m-2206 -1404 c63
-34 71 -63 71 -269 l0 -183 186 0 c213 0 230 -5 265 -77 17 -36 19 -48 10 -75
-14 -40 -28 -58 -61 -81 -21 -15 -52 -17 -212 -17 l-188 0 0 -183 c0 -208 -8
-236 -74 -270 -50 -26 -100 -16 -142 28 -39 42 -44 70 -44 268 l0 157 -180 0
c-201 0 -226 6 -260 63 -36 59 -18 130 43 167 29 18 51 20 214 20 l181 0 4
188 c3 179 4 189 27 221 24 34 70 60 106 61 11 0 36 -8 54 -18z m2291 -468
c80 -48 80 -170 0 -218 -25 -14 -84 -16 -534 -16 l-506 0 -40 40 c-35 35 -40
46 -40 85 0 39 5 50 40 85 l40 40 506 0 c450 0 509 -2 534 -16z m-794 -1179
c65 -50 81 -129 41 -199 -76 -136 -287 -83 -287 71 0 133 142 207 246 128z
m-1846 -5 c25 -7 71 -46 160 -135 69 -69 129 -125 135 -125 6 0 64 54 130 121
66 67 135 128 154 136 86 37 182 -41 166 -136 -5 -31 -28 -59 -136 -167 -71
-71 -129 -133 -129 -139 0 -6 56 -66 125 -135 138 -137 155 -167 136 -231 -17
-57 -61 -89 -123 -89 l-51 0 -139 137 -138 137 -138 -137 c-134 -133 -140
-137 -181 -137 -83 0 -131 48 -131 131 0 41 4 47 137 181 l137 138 -126 128
c-69 70 -131 137 -137 149 -31 61 -1 141 63 169 38 16 42 16 86 4z m2454 -34
c51 -21 76 -60 76 -119 l0 -51 -363 -363 -362 -363 -52 0 c-61 0 -105 30 -123
85 -24 73 -22 76 353 453 385 386 392 391 471 358z m85 -606 c106 -54 112
-199 10 -268 -28 -20 -44 -23 -92 -20 -49 4 -62 9 -92 38 -62 60 -70 140 -21
204 48 64 125 82 195 46z"/>
</g>
</svg>
