<?xml version="1.0" standalone="no"?>
<!DOCTYPE svg PUBLIC "-//W3C//DTD SVG 20010904//EN"
 "http://www.w3.org/TR/2001/REC-SVG-20010904/DTD/svg10.dtd">
<svg version="1.0" xmlns="http://www.w3.org/2000/svg"
 width="980.000000pt" height="980.000000pt" viewBox="0 0 980.000000 980.000000"
 preserveAspectRatio="xMidYMid meet">
<metadata>
Created by potrace 1.16, written by Peter Selinger 2001-2019
</metadata>
<g transform="translate(0.000000,980.000000) scale(0.100000,-0.100000)"
fill="white" stroke="none">
<path d="M795 9789 c-253 -4 -477 -12 -497 -17 -20 -5 -52 -19 -71 -31 -52
-32 -163 -154 -194 -214 l-28 -52 2 -2024 3 -2024 41 -64 c57 -86 145 -166
216 -194 50 -20 76 -23 193 -24 129 0 138 1 195 29 37 18 87 56 132 101 84 84
97 117 113 295 7 72 13 718 17 1713 l6 1597 3978 0 3979 0 0 -3980 0 -3980
-1761 0 -1762 0 -76 -42 c-96 -53 -170 -122 -209 -197 -131 -245 -44 -514 206
-640 l82 -41 1837 0 c1011 1 1941 5 2066 9 218 9 230 10 282 36 64 31 161 123
200 189 22 38 29 67 38 164 17 171 17 8875 0 9020 -14 126 -32 160 -137 260
-124 117 -16 105 -1006 113 -1125 9 -7249 8 -7845 -2z"/>
<path d="M5501 7739 c-180 -23 -336 -186 -360 -374 -22 -178 45 -335 187 -442
97 -73 106 -74 480 -83 183 -4 335 -10 339 -13 10 -11 -156 -183 -1014 -1048
-817 -824 -971 -987 -1015 -1078 -65 -135 -12 -337 126 -469 135 -130 326
-178 457 -114 91 44 253 197 1078 1015 862 855 1037 1024 1047 1014 4 -3 10
-161 14 -351 9 -400 5 -385 116 -505 50 -54 84 -80 141 -108 67 -33 85 -38
170 -41 158 -7 286 43 376 149 70 81 85 126 99 299 16 212 17 1486 0 1705 -15
189 -32 235 -122 325 -75 74 -145 108 -251 120 -102 12 -1776 11 -1868 -1z"/>
<path d="M513 4100 c-194 -7 -204 -8 -260 -35 -74 -37 -171 -133 -207 -207
-26 -53 -28 -69 -36 -245 -11 -222 -11 -2486 -1 -2978 8 -396 0 -366 126 -492
117 -117 133 -123 369 -134 250 -11 2854 -11 3104 0 226 11 254 20 364 121 79
72 102 121 120 251 18 132 19 3211 1 3342 -20 144 -29 164 -107 243 -107 107
-149 123 -338 134 -177 11 -2833 10 -3135 0z m2667 -2038 l0 -1129 -232 -6
c-128 -4 -637 -7 -1130 -7 l-898 0 0 1053 c0 580 3 1088 6 1130 7 76 7 76 38
80 17 2 523 5 1124 5 l1092 2 0 -1128z"/>
</g>
</svg>
